<svg width="872" height="208" viewBox="0 0 872 208" fill="none" xmlns="http://www.w3.org/2000/svg">
<g filter="url(#filter0_d_4407_2384)">
<path d="M652.657 72.1758H665.057V96.7091H680.257V106.442H665.057V151.642H652.657V106.442H642.523V96.7091H652.657V72.1758Z" fill="white"/>
<path d="M584.739 96.4458L585.805 109.912L585.272 107.779C587.05 103.69 589.939 100.446 593.939 98.0458C597.939 95.5569 602.561 94.3125 607.805 94.3125C613.05 94.3125 617.316 95.8681 620.605 98.9792C623.983 102.001 625.716 105.957 625.805 110.846V151.646H613.272V115.246C613.183 112.224 612.294 109.779 610.605 107.913C609.005 105.957 606.472 104.979 603.005 104.979C599.805 104.979 596.916 105.868 594.339 107.646C591.761 109.424 589.716 111.868 588.205 114.979C586.783 118.09 586.072 121.69 586.072 125.779V151.646H573.672V96.4458H584.739Z" fill="white"/>
<path d="M539.797 96.4453H552.197V151.645H539.797V96.4453Z" fill="white"/>
<path d="M440.848 96.4458L441.915 108.846L441.381 107.779C443.426 103.601 446.315 100.312 450.048 97.9125C453.87 95.5125 458.226 94.3125 463.115 94.3125C466.226 94.3125 468.981 94.8014 471.381 95.7792C473.781 96.7569 475.737 98.1792 477.248 100.046C478.848 101.824 479.87 104.046 480.315 106.712L479.648 107.112C481.781 103.112 484.715 100.001 488.448 97.7792C492.27 95.4681 496.27 94.3125 500.448 94.3125C505.87 94.3125 510.137 95.8681 513.248 98.9792C516.448 102.001 518.092 105.957 518.181 110.846V151.646H505.781V115.246C505.692 112.401 504.981 110.046 503.648 108.179C502.403 106.224 500.181 105.157 496.981 104.979C493.781 104.979 490.892 105.957 488.315 107.913C485.826 109.868 483.87 112.401 482.448 115.512C481.026 118.535 480.27 121.824 480.181 125.379V151.646H467.781V115.246C467.692 112.401 466.937 110.046 465.515 108.179C464.181 106.224 461.915 105.157 458.715 104.979C455.426 104.979 452.537 105.957 450.048 107.913C447.559 109.868 445.603 112.401 444.181 115.512C442.848 118.624 442.181 121.957 442.181 125.513V151.646H429.781V96.4458H440.848Z" fill="white"/>
<path d="M390.715 96.4458L391.915 112.446L391.248 110.313C392.671 106.935 394.715 104.09 397.382 101.779C400.137 99.3792 402.982 97.5569 405.915 96.3125C408.937 94.9792 411.56 94.3125 413.782 94.3125L413.115 106.579C408.937 106.312 405.248 107.112 402.048 108.979C398.937 110.846 396.448 113.335 394.582 116.446C392.804 119.557 391.915 122.89 391.915 126.446V151.646H379.648V96.4458H390.715Z" fill="white"/>
<path d="M335.955 152.968C329.644 152.968 324.221 151.724 319.688 149.235C315.155 146.657 311.644 143.19 309.155 138.835C306.755 134.39 305.555 129.324 305.555 123.635C305.555 118.212 306.932 113.279 309.688 108.835C312.444 104.39 316.132 100.835 320.755 98.168C325.377 95.5013 330.532 94.168 336.221 94.168C343.51 94.168 349.555 96.3013 354.355 100.568C359.155 104.835 362.399 110.701 364.088 118.168L318.621 134.168L315.688 126.835L353.021 113.235L350.355 114.968C349.288 112.035 347.51 109.501 345.021 107.368C342.532 105.146 339.288 104.035 335.288 104.035C331.91 104.035 328.888 104.879 326.221 106.568C323.555 108.168 321.466 110.39 319.955 113.235C318.444 116.079 317.688 119.324 317.688 122.968C317.688 126.79 318.488 130.168 320.088 133.101C321.688 135.946 323.866 138.212 326.621 139.901C329.466 141.501 332.666 142.301 336.221 142.301C338.621 142.301 340.932 141.857 343.155 140.968C345.466 140.079 347.599 138.924 349.555 137.501L355.288 146.701C352.532 148.568 349.421 150.079 345.955 151.235C342.577 152.39 339.244 152.968 335.955 152.968Z" fill="white"/>
<path d="M263.901 152.968C259.723 152.968 255.678 151.99 251.767 150.035C247.945 148.079 244.967 145.457 242.834 142.168L243.634 138.301V178.168H231.367V95.6346H242.034L243.767 109.768L242.434 105.901C245.101 102.524 248.478 99.7235 252.567 97.5013C256.656 95.2791 261.234 94.168 266.301 94.168C271.456 94.168 276.078 95.4124 280.167 97.9013C284.345 100.39 287.634 103.857 290.034 108.301C292.434 112.746 293.634 117.946 293.634 123.901C293.634 129.857 292.345 135.012 289.767 139.368C287.189 143.724 283.634 147.101 279.101 149.501C274.656 151.812 269.589 152.968 263.901 152.968ZM261.501 143.101C265.056 143.101 268.301 142.301 271.234 140.701C274.256 139.012 276.656 136.746 278.434 133.901C280.212 130.968 281.101 127.679 281.101 124.035C281.101 120.301 280.256 117.012 278.567 114.168C276.878 111.235 274.612 108.924 271.767 107.235C269.012 105.546 265.901 104.701 262.434 104.701C259.234 104.701 256.345 105.324 253.767 106.568C251.189 107.812 249.056 109.546 247.367 111.768C245.678 113.901 244.478 116.39 243.767 119.235V128.435C244.212 131.279 245.278 133.812 246.967 136.035C248.656 138.257 250.745 139.99 253.234 141.235C255.812 142.479 258.567 143.101 261.501 143.101Z" fill="white"/>
<path d="M184.861 152.968C180.684 152.968 176.639 151.99 172.728 150.035C168.906 148.079 165.928 145.457 163.795 142.168L164.595 138.301V178.168H152.328V95.6346H162.995L164.728 109.768L163.395 105.901C166.061 102.524 169.439 99.7235 173.528 97.5013C177.617 95.2791 182.195 94.168 187.261 94.168C192.417 94.168 197.039 95.4124 201.128 97.9013C205.306 100.39 208.595 103.857 210.995 108.301C213.395 112.746 214.595 117.946 214.595 123.901C214.595 129.857 213.306 135.012 210.728 139.368C208.15 143.724 204.595 147.101 200.061 149.501C195.617 151.812 190.55 152.968 184.861 152.968ZM182.461 143.101C186.017 143.101 189.261 142.301 192.195 140.701C195.217 139.012 197.617 136.746 199.395 133.901C201.173 130.968 202.061 127.679 202.061 124.035C202.061 120.301 201.217 117.012 199.528 114.168C197.839 111.235 195.573 108.924 192.728 107.235C189.973 105.546 186.861 104.701 183.395 104.701C180.195 104.701 177.306 105.324 174.728 106.568C172.15 107.812 170.017 109.546 168.328 111.768C166.639 113.901 165.439 116.39 164.728 119.235V128.435C165.173 131.279 166.239 133.812 167.928 136.035C169.617 138.257 171.706 139.99 174.195 141.235C176.773 142.479 179.528 143.101 182.461 143.101Z" fill="white"/>
<path d="M108.627 152.968C102.315 152.968 96.8932 151.724 92.3599 149.235C87.8266 146.657 84.3155 143.19 81.8266 138.835C79.4266 134.39 78.2266 129.324 78.2266 123.635C78.2266 118.212 79.6043 113.279 82.3599 108.835C85.1154 104.39 88.8043 100.835 93.4266 98.168C98.0488 95.5013 103.204 94.168 108.893 94.168C116.182 94.168 122.227 96.3013 127.027 100.568C131.827 104.835 135.071 110.701 136.76 118.168L91.2932 134.168L88.3599 126.835L125.693 113.235L123.027 114.968C121.96 112.035 120.182 109.501 117.693 107.368C115.204 105.146 111.96 104.035 107.96 104.035C104.582 104.035 101.56 104.879 98.8932 106.568C96.2266 108.168 94.1377 110.39 92.6266 113.235C91.1154 116.079 90.3599 119.324 90.3599 122.968C90.3599 126.79 91.1599 130.168 92.7599 133.101C94.3599 135.946 96.5377 138.212 99.2932 139.901C102.138 141.501 105.338 142.301 108.893 142.301C111.293 142.301 113.604 141.857 115.827 140.968C118.138 140.079 120.271 138.924 122.227 137.501L127.96 146.701C125.204 148.568 122.093 150.079 118.627 151.235C115.249 152.39 111.915 152.968 108.627 152.968Z" fill="white"/>
<path d="M36.5333 152.968C32.3556 152.968 28.3111 151.99 24.4 150.035C20.5778 148.079 17.6 145.457 15.4667 142.168L16.2667 138.301V178.168H4V95.6346H14.6667L16.4 109.768L15.0667 105.901C17.7333 102.524 21.1111 99.7235 25.2 97.5013C29.2889 95.2791 33.8667 94.168 38.9333 94.168C44.0889 94.168 48.7111 95.4124 52.8 97.9013C56.9778 100.39 60.2667 103.857 62.6667 108.301C65.0667 112.746 66.2667 117.946 66.2667 123.901C66.2667 129.857 64.9778 135.012 62.4 139.368C59.8222 143.724 56.2667 147.101 51.7333 149.501C47.2889 151.812 42.2222 152.968 36.5333 152.968ZM34.1333 143.101C37.6889 143.101 40.9333 142.301 43.8667 140.701C46.8889 139.012 49.2889 136.746 51.0667 133.901C52.8444 130.968 53.7333 127.679 53.7333 124.035C53.7333 120.301 52.8889 117.012 51.2 114.168C49.5111 111.235 47.2444 108.924 44.4 107.235C41.6444 105.546 38.5333 104.701 35.0667 104.701C31.8667 104.701 28.9778 105.324 26.4 106.568C23.8222 107.812 21.6889 109.546 20 111.768C18.3111 113.901 17.1111 116.39 16.4 119.235V128.435C16.8444 131.279 17.9111 133.812 19.6 136.035C21.2889 138.257 23.3778 139.99 25.8667 141.235C28.4444 142.479 31.2 143.101 34.1333 143.101Z" fill="white"/>
<path fill-rule="evenodd" clip-rule="evenodd" d="M709.323 12.9745C703.274 15.662 699.383 21.6155 699.383 28.1806V183.333C699.383 192.538 706.918 200 716.212 200H850.846C860.141 200 867.676 192.538 867.676 183.333V28.1806C867.676 21.6155 863.784 15.662 857.736 12.9745L831.825 1.46056C829.658 0.49776 827.31 0 824.935 0H742.123C739.748 0 737.4 0.497759 735.234 1.46056L709.323 12.9745ZM734.045 146.733C739.464 149.858 745.886 151.42 753.313 151.42C760.74 151.42 767.146 149.858 772.533 146.733C777.951 143.576 782.127 139.189 785.059 133.57C787.991 127.92 789.458 121.37 789.458 113.92C789.458 106.408 787.991 99.8422 785.059 94.2235C782.127 88.5732 777.951 84.1856 772.533 81.0606C767.146 77.904 760.74 76.3258 753.313 76.3258C745.886 76.3258 739.464 77.904 734.045 81.0606C728.659 84.1856 724.499 88.5732 721.567 94.2235C718.634 99.8422 717.168 106.408 717.168 113.92C717.168 121.37 718.634 127.92 721.567 133.57C724.499 139.189 728.659 143.576 734.045 146.733ZM761.871 132.955C759.608 134.848 756.787 135.795 753.409 135.795C749.998 135.795 747.129 134.848 744.803 132.955C742.508 131.029 740.771 128.409 739.591 125.095C738.444 121.78 737.87 118.008 737.87 113.778C737.87 109.549 738.444 105.777 739.591 102.462C740.771 99.1477 742.508 96.5278 744.803 94.6023C747.129 92.6768 749.998 91.714 753.409 91.714C756.787 91.714 759.608 92.6768 761.871 94.6023C764.134 96.5278 765.839 99.1477 766.987 102.462C768.166 105.777 768.756 109.549 768.756 113.778C768.756 118.008 768.166 121.78 766.987 125.095C765.839 128.409 764.134 131.029 761.871 132.955ZM841.762 92.4242V77.2727H827.945V59.8485H807.578V77.2727H797.538V92.4242H807.578V130.303C807.546 135.069 808.55 139.015 810.59 142.14C812.63 145.265 815.482 147.569 819.148 149.053C822.845 150.537 827.148 151.184 832.057 150.994C834.702 150.9 836.949 150.631 838.798 150.189C840.647 149.779 842.081 149.416 843.101 149.1L839.898 134.091C839.388 134.186 838.655 134.328 837.698 134.517C836.742 134.675 835.786 134.754 834.83 134.754C833.459 134.754 832.248 134.549 831.196 134.138C830.176 133.728 829.379 133.018 828.806 132.008C828.232 130.966 827.945 129.514 827.945 127.652V92.4242H841.762Z" fill="white"/>
</g>
<defs>
<filter id="filter0_d_4407_2384" x="0" y="0" width="871.672" height="208" filterUnits="userSpaceOnUse" color-interpolation-filters="sRGB">
<feFlood flood-opacity="0" result="BackgroundImageFix"/>
<feColorMatrix in="SourceAlpha" type="matrix" values="0 0 0 0 0 0 0 0 0 0 0 0 0 0 0 0 0 0 127 0" result="hardAlpha"/>
<feOffset dy="4"/>
<feGaussianBlur stdDeviation="2"/>
<feComposite in2="hardAlpha" operator="out"/>
<feColorMatrix type="matrix" values="0 0 0 0 0 0 0 0 0 0 0 0 0 0 0 0 0 0 0.25 0"/>
<feBlend mode="normal" in2="BackgroundImageFix" result="effect1_dropShadow_4407_2384"/>
<feBlend mode="normal" in="SourceGraphic" in2="effect1_dropShadow_4407_2384" result="shape"/>
</filter>
</defs>
</svg>
